<?xml version="1.0" encoding="UTF-8"?>
<svg version="1.1" viewBox="0 0 2048 972" width="1120" height="532" xmlns="http://www.w3.org/2000/svg">
<path transform="translate(0)" d="m0 0h2048v972h-2048z" fill="#FEFEFE"/>
<path transform="translate(453,280)" d="m0 0h48l32 5 19 5 18 6 24 11 21 12 11 8 9 7 10 8 20 20 7 9 11 15 12 21 10 22 10 30 5 24 2 18v34l-3 23-5 22-8 24-13 26-11 17-9 12-9 10-7 8-13 13-8 7-13 10-18 12-18 10-21 9-21 7-26 6-22 3h-40l-23-3-22-5-24-8-18-8-17-9-15-10-13-10-11-9-14-13-7-8-9-10-13-18-9-15-8-16-9-21-7-25-3-16-2-15v-44l4-27 7-27 9-21 10-19 11-16 10-13 8-8 7-8 20-18 17-12 17-11 17-9 25-10 17-5 24-5z" fill="#08376A"/>
<path transform="translate(409,347)" d="m0 0h7l7 3 6 5 3 7 1 14 26 13 6 2h11l27-12h3v-10l5-10 5-4 5-2h8l8 3 6 7 2 5v9l-5 10-4 4 3 19 4 15 3 6 10 6 5 6 2 4 29-1 7-1 7-9 8-5h12l8 4 6 8 1 8-3 9-5 5-5 4v8l4 25 8 38 3 5 10 7 4 5 2 6v7l-4 8-7 6-2 1h-13l-7-4-6-7-2-5-1-9-20-6-15-5-4 1-5 4-3 2h-5l-1 32-2 28 6 2 7 7 3 6v8l-3 7-7 6-4 1h-12l-11-5-4-2-33 11h-3l2 4v8l-3 9-7 6-6 2h-10l-8-4-4-5-3-8v-9l-23-13-18-9v2l-5 3-4 1h-8l-10-5-6-9-2-6 1-14-8-7-19-13-12-8-11-7-6 1-8 4h-13l-8-5-5-8-1-9 3-9 8-7 6-2h4l4-17 12-43 4-16 1-11-5-3-4-4-2-6v-11l4-6 7-6 10-2 8 2 6 4 4 7v16l-4 6 1 5 17 29 15 24 2 2 12 1 9 5 5 2 11-4 15-7 10-4 2-3 1-15-5-2-18-12-8-6v-2l-10 3h-8l-7-3-6-5-4-10 1-7 3-8 10-7h2l-2-38-9-5-5-4-4-9 1-9 5-8 7-5z" fill="#FEFEFE"/>
<path transform="translate(453,280)" d="m0 0h48l32 5 19 5 18 6 24 11 21 12-2 1 14 14 3 5-1 3h-13l-9 9-12 5-4 8-6 11h-2l-1 4-20 8-6 2-5 5-4 11-1 5-4 3-1-2-2 2-4-20 2-5 4-4 3-7v-9l-4-8-5-4-6-2h-8l-8 4-5 8-2 13-21 9-9 4h-11l-12-5-20-10-1-1-1-14-4-8-7-5-4-1h-7l-7 3-5 4-4 9 1 9 4 7 6 4 6 3 1 1 1 15v23l-11 7-4 11 1 7 4 8 7 5 4 1h8l10-2 5 5 26 17 1 6-1 9-5 5-17 7-13 6-6 1-10-6-2-1-12-1-7-9-9-15-13-22-7-12 1-4 3-5v-16l-4-7-7-4-9-1-9 3-7 8-1 2v11l3 7 4 4 4 2-1 11-11 41-9 33-1 2-10 3-7 6-3 9 1 9 6 9 6 3h13l10-5 5 1 10 6 9 8 2 1v2l4 2 5 6 6 4v2l4 1 5 5-3 7-4-1-11-8-2-1h-7l-8 6-11 4h-2l-2 4-6 11h-2l-2 4-3 7-5 6-14 4-3 12-7-2-5-2-10-13-10-15-10-18-11-26-7-25-3-16-2-15v-44l4-27 7-27 9-21 10-19 11-16 10-13 8-8 7-8 20-18 17-12 17-11 17-9 25-10 17-5 24-5z" fill="#2C5586"/>
<path transform="translate(1233,302)" d="m0 0h25l1 126v45h-24l-1-13-7 6-14 7-14 3h-17l-15-4-15-9-9-9-8-14-4-13v-21l4-16 8-14 10-11 14-9 14-4 7-1h10l14 3 15 8 5 4z" fill="#0A386B"/>
<path transform="translate(932,322)" d="m0 0h23l1 1v151h-26l-1-4v-92h-2l-2 4-12 20-11 19-15 26-7 13-17 1-5-5-8-15-10-16-10-17-9-14-8-12-1-1-1 5v35l-1 53h-26l-1-1v-149l1-1h24l5 6 17 29 17 28 15 25 7 11 1 1 10-16 21-35 28-48z" fill="#0A386B"/>
<path transform="translate(1491,351)" d="m0 0h18l15 4 12 7 6 4-1-13h23l1 1v23l-1 96h-24l-1-12-8 6-12 6-12 3h-16l-13-3-14-7-14-14-8-16-3-12-1-14 3-17 4-10 9-13 8-7 14-8 10-3z" fill="#09386B"/>
<path transform="translate(451,235)" d="m0 0h36l21 2 24 4 25 7 20 7 29 14 19 11 17 12 10 8 13 11 15 15 18 22-1 2-9-10-7-8-11-11-11-9-8-7-14-10-19-12-23-12-19-8-29-9-23-5-24-3-15-1h-22l-32 3-26 5-27 8-19 8-16 8-16 9-12 8-16 12-14 12-15 15-7 8-10 13-12 17-14 25-11 25-7 20-6 28-3 24v38l3 25 5 24 6 20 10 25 11 22 12 19 13 17 11 13 24 24 10 8 10 7 23 15 22 11 22 9 28 8 26 5 15 2 24 2 26-1 26-3 30-7 24-8 20-9 14-7 17-10 16-11 10-8 13-11 26-26v3l-10 11-7 8-15 15-11 9-14 11-20 13-18 10-17 8-23 9-21 6-26 5-17 2h-47l-24-3-25-5-25-7-20-8-22-10-23-14-16-12-11-9-8-8-8-7-15-16-7-9-14-19-11-19-8-15-11-26-8-25-5-24-3-22v-51l3-23 5-22 7-22 10-23 10-19 12-19 13-17 9-11 9-10 16-16 11-9 13-10 17-11 24-13 29-12 24-7 24-5 15-2z" fill="#2C5586"/>
<path transform="translate(1756,351)" d="m0 0h24l11 3 16 8 9 8 7 10 5 10 4 16 1 14-102 2 5 13 4 6 9 6 12 4h15l13-4 9-6 7-6 4 1 14 14-2 4-10 9-11 7-16 5-6 1h-18l-16-4-15-8-13-13-8-16-3-16v-9l3-16 4-10 7-11 4-5 14-10 11-5z" fill="#0A386B"/>
<path transform="translate(1041,351)" d="m0 0h17l16 4 11 6 10 9 7 8 6 12 3 9 2 16-2 5-36 1-62 1 1 5 6 12 7 6 9 4 7 2h15l13-4 9-6 5-5 1-2 5 2 12 12 2 5-9 8-11 7-11 5-14 3h-20l-16-4-11-6-10-9-7-8-5-10-3-9-1-8v-14l3-16 6-12 7-9 8-8 14-8z" fill="#0A386B"/>
<path transform="translate(500,510)" d="m0 0 5 1 15 8 18 10 2 2 2 14 5 5 8 6v32l-2 27-9 5-6 8-3 8-26 9-12 5-6-1-3-2h-11l-6 3h-7l-29-15-9-6-1-17 9-6 21-12 11-5 8 5 3 1h11l8-4 4-7 1-10-4-9-7-6-3-2v-41l11-4z" fill="#09376A"/>
<path transform="translate(1536,598)" d="m0 0h18l10 3 10 6 7 7 7 11 3 8 1 6v20l-3 11-6 12-9 10-10 6-9 3-5 1h-18l-12-4-9-6-7-7-8-16-2-11v-15l4-15 6-11 6-7 10-7 10-4z" fill="#FEFEFE"/>
<path transform="translate(1e3 598)" d="m0 0h16l9 2 11 6 7 6 8 12 4 13 1 8v12l-2 12-4 10-7 9-8 7-12 6-3 1h-23l-13-5-8-6-8-9-5-10-3-12v-20l3-12 5-10 7-8 8-6 8-4z" fill="#FEFEFE"/>
<path transform="translate(1258,597)" d="m0 0h13l12 3 8 4 10 9 7 11 3 9 2 12v13l-4 16-6 10-7 8-9 6-10 4h-24l-12-5-12-11-6-10-3-10-1-4v-27l6-16 8-10 8-6 8-4z" fill="#FEFEFE"/>
<path transform="translate(1365,321)" d="m0 0 18 1 17 5 16 8 8 6 4 4-2 4-11 12h-4l-13-9-12-5-13-2-18 1-14 5-11 8-8 9-6 12-3 12v13l3 11 6 12 9 10 11 7 10 4 8 2h18l15-5 9-6 7-6 4 1 7 6 7 8-1 4-11 9-14 8-16 5-5 1h-24l-16-4-12-5-13-9-9-8-9-12-7-16-3-15v-17l2-12 5-13 7-12 11-12 10-8 12-6 13-4 4-1z" fill="#09386B"/>
<path transform="translate(1253,583)" d="m0 0h25l13 4 10 5 9 7 9 12 6 14 2 7 1 8v21l-4 17-6 12-9 10-8 7-14 7-15 3h-14l-10-2-12-5-9-6-6-6-1 22-1 51h-15l-2-116 1-67 1-1h15v13l13-9 10-5zm5 14-11 3-9 5-8 7-7 11-4 12v27l3 11 5 10 9 10 7 5 10 4h24l12-5 10-8 8-11 4-10 2-10v-13l-3-16-6-12-9-10-9-6-9-3-6-1z" fill="#0A396C"/>
<path transform="translate(904,535)" d="m0 0h15l1 1v178h-16l-1-80-1-11-96-1v92h-17v-178h17v72l39-1h59l-1-3v-23z" fill="#09386B"/>
<path transform="translate(1535,583)" d="m0 0h18l13 3 14 7 9 8 1-4 1-10h16l1 127-4 1h-7l-5-1-1-8v-10l-11 9-12 7-14 4-8 1h-12l-12-2-13-5-11-8-9-11-6-12-4-16-1-5v-14l3-16 5-12 8-11 5-6 10-7 10-5zm1 15-12 3-10 6-7 6-6 9-5 12-2 9v15l3 14 7 13 9 9 12 6 7 2h18l11-3 12-6 8-8 7-12 3-9 1-5v-20l-3-12-6-10-9-10-10-6-10-3z" fill="#0B396C"/>
<path transform="translate(1e3 583)" d="m0 0h18l13 3 15 8 9 7 8 11 7 14 3 15v21l-3 13-7 14-9 10-8 7-14 7-12 3-13 1-15-2-12-4-13-9-9-9-6-10-5-13-2-8v-26l3-12 8-15 9-10 11-8 8-4zm1 15-11 3-9 5-8 7-7 10-4 11-1 6v20l3 12 5 10 9 10 9 6 11 4h23l12-5 9-7 7-8 5-10 2-7 1-8v-12l-2-12-4-11-9-12-8-6-11-5-6-1z" fill="#0A396C"/>
<path transform="translate(1190,374)" d="m0 0 14 1 11 4 9 7 6 9 3 7 1 13-2 11-6 12-8 8-10 5-9 2h-9l-10-2-10-5-7-7-6-12-2-9v-8l3-12 6-10 9-8 8-4z" fill="#FEFEFE"/>
<path transform="translate(1496,374)" d="m0 0h10l12 3 11 7 7 9 4 10v17l-4 12-7 10-8 6-10 4h-19l-12-5-8-7-6-10-2-5-1-6v-11l3-12 7-10 7-6 8-4z" fill="#FEFEFE"/>
<path transform="translate(1656,351)" d="m0 0h15l14 3 9 5-1 5-8 14-17-4h-9l-11 2-10 5-9 10-5 10-2 9-1 63-1 1h-22l-1-1v-119l1-1h23l2 1 1 14 4-5 9-6 10-4z" fill="#09386B"/>
<path transform="translate(469,408)" d="m0 0 6 2 10 6 14 8 21 13 3 2 1 21-10 9-15 11-9-3h-13l-6 2-6-1-15-11-15-9 2-6v-13l-3-6 2-4 27-18z" fill="#2C5586"/>
<path transform="translate(1132,583)" d="m0 0h12l19 3 9 3 1 2-2 14-2 1-11-5-10-2h-18l-10 3-7 5-3 5-1 10 4 8 8 6 13 5 19 6 12 6 8 7 5 10 1 4v12l-4 11-8 9-9 5-12 4-6 1h-19l-16-3-11-4-3-2 2-12 1-3 6 2 12 5 9 2h22l11-4 5-5 3-5v-10l-4-8-8-6-34-12-11-6-5-4-6-10-2-7v-9l3-10 6-9 11-8 13-4z" fill="#0B396C"/>
<path transform="translate(465,511)" d="m0 0 5 1 7 6v39l-9 5-4 5-2 6-1 7-21 13-23 13-5-1-1-1-1-9v-44l6-5 5-4 3-6 2-7 23-12 11-5z" fill="#09386B"/>
<path transform="translate(697,686)" d="m0 0v3l-10 11-7 8-15 15-11 9-14 11-20 13-18 10-17 8-23 9-21 6-26 5-17 2h-47l-24-3-25-5-25-7-20-8-22-10-23-14-16-12-11-9-8-8-8-7-15-16-4-6v-2l3 1v2l5 2 5 4v2l6 2 12 11 4 2 1-2 6 4 14 12 12 8 20 13 22 11 22 9 28 8 26 5 15 2 24 2 26-1 26-3 30-7 24-8 20-9 14-7 17-10 16-11 10-8 13-11z" fill="#0D3B6E"/>
<path transform="translate(581,456)" d="m0 0h20l1 6-3 9-14 21-13 20-4 4h-11l-6 3-4 3-7-1-16-9-13-8-6-4-2-9 6-7 16-12 5-3 8 1 9 1 9-4 4-2 4-8z" fill="#09386B"/>
<path transform="translate(1422,546)" d="m0 0h8l1 1 1 38 4 1 30 1-1 11-1 3-32 1v75l2 13 3 5 8 4 9 2 13-1 1 4v10l-6 2-16-1-10-3-10-6-5-6-5-12-1-87h-22v-14l22-1-1-39z" fill="#09386B"/>
<path transform="translate(1644,514)" d="m0 0h16v87h2l-1 3v111h-14l-3-2z" fill="#08376A"/>
<path transform="translate(350,456)" d="m0 0 5 4 9 15 17 29 5 11-1 5-1 8-4 3-22 7-14 4-10 2-6-2v-9l13-50 8-26z" fill="#2C5586"/>
<path transform="translate(612,469)" d="m0 0 5 1 4 20 9 46v10l-3 3-3 1h-7l-24-8-10-5-1-7-4-7 1-7 9-13 17-26 5-7z" fill="#09386B"/>
<path transform="translate(381,540)" d="m0 0 4 1 8 7 7 4 1 1 1 10v37l-1 3-6-1-11-7-26-18-16-10-5-5v-8l8-4 24-7z" fill="#2C5586"/>
<path transform="translate(1351,586)" d="m0 0h16v128h-15l-1-39z" fill="#09386B"/>
<path transform="translate(1764,373)" d="m0 0h10l8 2 10 5 6 5 6 10 1 4-2 1h-70l1-5 6-10 10-8 8-3z" fill="#FEFEFE"/>
<path transform="translate(1040,374)" d="m0 0h19l12 5 7 6 6 9 1 6h-71l1-6 8-11 9-6z" fill="#FEFEFE"/>
<path transform="translate(511,386)" d="m0 0 10 4 4 2 3 9 5 27-1 3-7-1-17-10-19-12-8-6v-2l16-8z" fill="#2B5485"/>
<path transform="translate(423,384)" d="m0 0 11 4 20 9 5 2-2 4-13 10-15 11-6 1-1-18v-21z" fill="#2C5586"/>
<path transform="translate(436,470)" d="m0 0 5 1 21 14 1 6-1 9-5 5-15 6-4-1 3-6-10 1-9-1-2-1 3-11 5-5 12-2 11 5 1 2v6l4-1v-8l-4-5-7-5-3-3v-2l-4-2z" fill="#0A386B"/>
<path transform="translate(498,446)" d="m0 0 8 2 5 5 2 6 9 1-2 4-15 12h-5l-2-3v-4h-9l-5-3-11-4 1-4 10-7z" fill="#08376A"/>
<path transform="translate(463,513)" d="m0 0 7 1 3 5-1 8-1 2-4-1-2-2h-7l-12 6-8 6-10 13-5 5-4 5-4-1-3-7 2-6 6-4 4-7 2-7 5-2 9-3 6-3 9-2 4-2 1-3z" fill="#2C5586"/>
<path transform="translate(1357,529)" d="m0 0 10 2 5 6 1 2v8l-3 5-4 3h-11l-6-5-2-5v-7l3-6z" fill="#0D3B6E"/>
<path transform="translate(1644,514)" d="m0 0h16v87h2l-1 3-1 50h-1v-139h-14v198h-1z" fill="#2D5687"/>
<path transform="translate(610,273)" d="m0 0 5 1 16 10 19 14 9 8 8 7 13 13 18 22-1 2-9-10-7-8-11-11-11-9-8-7-14-10-10-7h3l6 3-8-6-13-8z" fill="#124072"/>
<path transform="translate(1353,530)" d="m0 0 8 1 1 3 2 1h-2l-2 4-3 2 1 6 1 4-5 2-4-5-1-2-1-11z" fill="#2C5586"/>
<path transform="translate(612,469)" d="m0 0 5 1 1 9-2 2-2 6-5-1-2-7 2-7z" fill="#2C5586"/>
<path transform="translate(465,511)" d="m0 0 5 1 3 3h-3l-7-1h-3l-1 4-10 4-5 1-5 3-8 2v-2l29-14z" fill="#103D70"/>
<path transform="translate(348,756)" d="m0 0 6 2 6 3v3l4 3v2h-6l-10-5-1-5z" fill="#2D5687"/>
<path transform="translate(399,568)" d="m0 0h2v24l-2-1-2-13z" fill="#08376A"/>
<path transform="translate(499,426)" d="m0 0 5 1 18 11v19h-1l-1-16-9-7-12-7z" fill="#113E71"/>
<path transform="translate(643,294)" d="m0 0 4 2 11 9 10 9 4 5-4-2-11-10-11-9z" fill="#2D5687"/>
<path transform="translate(379,588)" d="m0 0 9 5 5 4v2l-4-1-11-7z" fill="#103D70"/>
<path transform="translate(610,273)" d="m0 0 5 1 16 10 4 4-4-1-11-7-10-6z" fill="#144173"/>
<path transform="translate(445,519)" d="m0 0 2 1-3 3-5 3-8 2v-2z" fill="#144173"/>
<path transform="translate(544,417)" d="m0 0h3l3 10h-3l-4-8z" fill="#2D5687"/>
<path transform="translate(565,460)" d="m0 0 4 1v5l-5 1-2-2z" fill="#2D5687"/>
<path transform="translate(289,715)" d="m0 0 6 5-3 2-4-1-1-4z" fill="#2D5687"/>
</svg>
