<?xml version="1.0" encoding="UTF-8"?>
<svg version="1.1" xmlns="http://www.w3.org/2000/svg" width="631" height="715">
<path d="M0 0 C208.23 0 416.46 0 631 0 C631 235.95 631 471.9 631 715 C422.77 715 214.54 715 0 715 C0 479.05 0 243.1 0 0 Z " fill="#626FAB" transform="translate(0,0)"/>
<path d="M0 0 C208.23 0 416.46 0 631 0 C631 235.95 631 471.9 631 715 C422.77 715 214.54 715 0 715 C0 479.05 0 243.1 0 0 Z M304.87890625 32.984375 C303.87690186 33.41878906 302.87489746 33.85320313 301.8425293 34.30078125 C300.21891479 35.01814453 300.21891479 35.01814453 298.5625 35.75 C296.20680001 36.76810632 293.84998402 37.78363344 291.4921875 38.796875 C290.88036118 39.060448 290.26853485 39.324021 289.63816833 39.59558105 C256.12554458 53.99162796 221.74394299 66.26033583 187.359375 78.375 C185.99221848 78.85716728 185.99221848 78.85716728 184.59744263 79.34907532 C168.50634527 85.0053008 168.50634527 85.0053008 163.16015625 86.2109375 C162.33523682 86.40091309 161.51031738 86.59088867 160.66040039 86.78662109 C159.80309326 86.98078613 158.94578613 87.17495117 158.0625 87.375 C151.51273712 88.89313799 145.02190961 90.51055358 138.5625 92.375 C114.82862831 99.11905097 90.49273791 103.91196192 66.40039062 109.18017578 C56.2538976 111.3992901 46.10986938 113.61830659 36 116 C21.50497102 193.45815713 28.00716953 274.30231889 44 351 C44.17885742 351.86351074 44.35771484 352.72702148 44.54199219 353.61669922 C47.21559844 366.30954999 51.05877772 378.65185527 55 391 C55.4274455 392.34943501 55.85485262 393.69888217 56.28222656 395.04833984 C72.26502307 445.34475814 94.11874086 492.98847115 125 536 C125.56960449 536.79873535 126.13920898 537.5974707 126.72607422 538.42041016 C134.34033977 549.06357804 142.31691743 559.21203417 151 569 C152.22975555 570.41615551 153.45901902 571.83273869 154.6875 573.25 C155.79103046 574.50056169 156.89529171 575.75047864 158 577 C158.59546631 577.67957764 159.19093262 578.35915527 159.80444336 579.05932617 C165.97709234 586.02271392 172.45878552 592.64496566 179.03759766 599.22290039 C180.87042269 601.05791722 182.6950701 602.9008125 184.51953125 604.74414062 C191.37454346 611.63157491 198.36652337 617.97504012 206 624 C207.12500282 624.94674107 208.24460873 625.89998481 209.35546875 626.86328125 C217.60348963 633.99639724 226.17511149 640.59724935 235 647 C235.77263184 647.56122559 236.54526367 648.12245117 237.34130859 648.70068359 C248.766258 656.95421271 260.46098455 664.52441453 272.63769531 671.61816406 C274.89040369 672.93589137 277.13057185 674.27236762 279.3671875 675.6171875 C283.55094545 678.12647549 287.76443693 680.57927815 292 683 C292.81484863 683.46809082 293.62969727 683.93618164 294.46923828 684.41845703 C297.00922199 685.86414519 299.56393758 687.27954843 302.125 688.6875 C302.90689697 689.13432129 303.68879395 689.58114258 304.49438477 690.04150391 C307.96293154 691.91139893 310.37796969 692.97537948 314.35546875 693.1328125 C319.68194099 691.4772102 324.33394059 688.90851705 329.1875 686.1875 C330.24904297 685.60073486 331.31058594 685.01396973 332.40429688 684.40942383 C361.75184742 668.08254371 390.37546506 649.79212648 416 628 C416.53399414 627.54947266 417.06798828 627.09894531 417.61816406 626.63476562 C419.39468487 625.13548215 421.16691777 623.63129092 422.9375 622.125 C423.46255127 621.67946777 423.98760254 621.23393555 424.52856445 620.77490234 C434.33002776 612.37196387 443.66756851 603.50057325 452.7746582 594.35571289 C454.32584727 592.79910611 455.88239392 591.24799829 457.43945312 589.69726562 C462.8361756 584.30450342 468.07457971 578.83160001 473 573 C473.91238183 571.9436833 474.82512336 570.88767714 475.73828125 569.83203125 C495.5342743 546.61154168 513.00348501 521.57104128 528 495 C528.52464844 494.07106934 529.04929687 493.14213867 529.58984375 492.18505859 C543.31857256 467.69608188 554.59870826 442.45402987 564 416 C564.4031543 414.8872168 564.80630859 413.77443359 565.22167969 412.62792969 C581.27073625 368.2802292 590.61360658 322.01686127 595.75 275.1875 C595.86569336 274.1344165 595.98138672 273.08133301 596.10058594 271.99633789 C598.04246436 253.01285315 598.18807158 234.02376347 598.18530273 214.96142578 C598.18522195 212.08831421 598.19210421 209.21536372 598.20581055 206.34228516 C598.32099199 181.78188899 597.34700701 157.4152281 594.4375 133 C594.31181641 131.88496094 594.18613281 130.76992187 594.05664062 129.62109375 C593.52923046 125.03179688 592.95559268 120.52235638 592 116 C587.79187302 115.0615722 583.58345936 114.12443595 579.375 113.1875 C578.20453125 112.92646484 577.0340625 112.66542969 575.828125 112.39648438 C569.894052 111.07599011 563.95724703 109.77189607 558.01171875 108.50390625 C536.8941873 103.99409553 515.86213612 99.10328632 494.89355469 93.94775391 C491.48151843 93.11293556 488.06361518 92.30452504 484.6444397 91.49952698 C433.38983059 79.40194272 383.19460312 60.47593055 334.91796875 39.52734375 C334.26619156 39.24490814 333.61441437 38.96247253 332.94288635 38.67147827 C329.85874124 37.3317611 326.7823889 35.97820957 323.71313477 34.60449219 C322.09942993 33.89341309 322.09942993 33.89341309 320.453125 33.16796875 C319.04788574 32.53797974 319.04788574 32.53797974 317.61425781 31.89526367 C312.74697864 30.22844328 309.50269531 30.94606356 304.87890625 32.984375 Z " fill="#FEFEFE" transform="translate(0,0)"/>
<path d="M0 0 C1.49233304 0.61267216 2.98468411 1.2253004 4.47705078 1.83789062 C5.26162659 2.16184814 6.04620239 2.48580566 6.85455322 2.81958008 C11.05106916 4.54974374 15.25583901 6.25957258 19.4609375 7.96875 C20.31898987 8.31752197 21.17704224 8.66629395 22.06109619 9.02563477 C35.065819 14.30123711 48.15056744 19.34730264 61.31030273 24.22265625 C63.6900194 25.1066303 66.06674195 25.99835525 68.44335938 26.890625 C97.9757513 37.93532406 127.91748031 45.96072622 158.61328125 53.078125 C159.59556702 53.30691345 160.57785278 53.5357019 161.58990479 53.77142334 C170.96199232 55.95338619 180.34128058 58.10347396 189.73828125 60.17578125 C190.44845901 60.33246277 191.15863678 60.48914429 191.89033508 60.65057373 C195.96392644 61.53707231 200.04509794 62.36094234 204.140625 63.14013672 C205.06278809 63.31725693 205.98495117 63.49437714 206.93505859 63.67686462 C208.73207567 64.01935797 210.53056405 64.35423853 212.33056641 64.68067932 C214.43805312 65.08232288 216.52838275 65.57214474 218.61328125 66.078125 C218.94328125 66.738125 219.27328125 67.398125 219.61328125 68.078125 C218.70191406 68.75875 217.79054688 69.439375 216.8515625 70.140625 C206.29342318 78.03668715 195.79915332 86.01470227 185.31884766 94.01367188 C180.04561421 98.03735551 174.76837007 102.05577712 169.49169922 106.07495117 C165.10210883 109.41879821 160.71379703 112.76429623 156.328125 116.11328125 C147.72240194 122.68191616 139.09872755 129.2234439 130.42578125 135.703125 C123.25862358 141.05903443 116.17061927 146.50638933 109.12255859 152.01782227 C103.66368631 156.28003926 98.14676803 160.45699914 92.59643555 164.59912109 C87.59842899 168.33128146 82.62990637 172.10041757 77.67578125 175.890625 C76.96156006 176.43686523 76.24733887 176.98310547 75.51147461 177.54589844 C71.00692025 180.99655507 66.52551748 184.47475277 62.08203125 188.00390625 C60.61328125 189.078125 60.61328125 189.078125 59.61328125 189.078125 C59.59869873 188.37727783 59.58411621 187.67643066 59.5690918 186.9543457 C59.49442638 183.76589491 59.3978265 180.57846987 59.30078125 177.390625 C59.27822266 176.28783203 59.25566406 175.18503906 59.23242188 174.04882812 C59.17924805 172.4487793 59.17924805 172.4487793 59.125 170.81640625 C59.09881592 169.83712158 59.07263184 168.85783691 59.0456543 167.84887695 C58.35206375 163.40417952 56.05263687 159.94425468 52.61328125 157.078125 C49.46365689 156.02825021 47.16540709 155.92218658 43.85668945 155.87280273 C42.67569168 155.85285751 41.49469391 155.83291229 40.27790833 155.81236267 C39.0028392 155.79565018 37.72777008 155.77893768 36.4140625 155.76171875 C34.45607979 155.7305471 34.45607979 155.7305471 32.45854187 155.69874573 C28.99145772 155.64360227 25.52431479 155.59415905 22.05712891 155.54589844 C18.51785056 155.4956269 14.97865736 155.43997037 11.43945312 155.38476562 C4.49746969 155.27727862 -2.44459069 155.17581273 -9.38671875 155.078125 C-9.39258499 154.35007156 -9.39845123 153.62201813 -9.40449524 152.87190247 C-9.46246959 146.00081942 -9.53457351 139.1300132 -9.62243366 132.25925159 C-9.66710539 128.72713834 -9.70636813 125.19513956 -9.7331543 121.6628418 C-9.76420955 117.59915178 -9.81899709 113.53607958 -9.875 109.47265625 C-9.88458488 107.57553642 -9.88458488 107.57553642 -9.8943634 105.64009094 C-9.91415756 104.45924423 -9.93395172 103.27839752 -9.9543457 102.06176758 C-9.96544876 101.02474197 -9.97655182 99.98771637 -9.98799133 98.91926575 C-10.61972354 94.41784437 -12.91411459 90.9719618 -16.38671875 88.078125 C-19.77537757 86.94857206 -22.39273628 86.93041201 -25.96606445 86.90112305 C-26.96175949 86.89126625 -26.96175949 86.89126625 -27.97756958 86.88121033 C-30.1725476 86.86151321 -32.36745731 86.84982284 -34.5625 86.83984375 C-35.31350668 86.83576822 -36.06451336 86.8316927 -36.83827782 86.82749367 C-40.81332498 86.80664824 -44.78833777 86.79233993 -48.76342773 86.78295898 C-52.86250303 86.77189741 -56.96103506 86.73749667 -61.0599184 86.69778728 C-64.21785979 86.67160437 -67.37567201 86.66326571 -70.53371239 86.65967751 C-72.04435076 86.65481586 -73.55498352 86.64321379 -75.06551552 86.62463951 C-77.18384125 86.60021045 -79.30076509 86.60121884 -81.41918945 86.6081543 C-82.62259476 86.60228806 -83.82600006 86.59642181 -85.06587219 86.59037781 C-89.11839573 87.18558958 -91.24434537 88.48360471 -94.38671875 91.078125 C-96.6844011 94.26144196 -96.65690342 97.17944247 -96.70556641 101.04003906 C-96.7254361 102.24098206 -96.74530579 103.44192505 -96.76577759 104.67926025 C-96.7773288 105.97104187 -96.78888 107.26282349 -96.80078125 108.59375 C-96.81949862 109.93325995 -96.83907246 111.27275818 -96.85946655 112.61224365 C-96.91073399 116.13026003 -96.95038827 119.64831462 -96.98760986 123.16650391 C-97.02768349 126.75953582 -97.07876046 130.35240954 -97.12890625 133.9453125 C-97.22560153 140.98946742 -97.31002665 148.0337216 -97.38671875 155.078125 C-98.12507965 155.08177063 -98.86344055 155.08541626 -99.62417603 155.08917236 C-106.59800217 155.12711039 -113.57144589 155.18402896 -120.54493141 155.26202774 C-124.12974446 155.30146101 -127.71431342 155.33366938 -131.29931641 155.34912109 C-134.76204615 155.36431574 -138.22410467 155.39880908 -141.68653488 155.44643402 C-143.64391616 155.46839253 -145.60148694 155.47059633 -147.55899048 155.47247314 C-156.29338409 155.54846731 -156.29338409 155.54846731 -163.38671875 160.078125 C-164.85372098 163.01212946 -164.5465277 165.63510648 -164.57958984 168.91113281 C-164.58776733 169.61379776 -164.59594482 170.31646271 -164.60437012 171.04042053 C-164.62922385 173.37068835 -164.64574151 175.70089517 -164.66015625 178.03125 C-164.66814177 179.225331 -164.66814177 179.225331 -164.6762886 180.44353485 C-164.70302234 184.65847308 -164.72239496 188.87338168 -164.73681641 193.08837891 C-164.75344928 197.43757052 -164.79821409 201.78600214 -164.84918785 206.13490677 C-164.88288374 209.48243049 -164.89439642 212.8297745 -164.90004349 216.17745209 C-164.90675143 217.78021796 -164.92196182 219.38297219 -164.9459343 220.98557281 C-164.97763676 223.2335196 -164.9776162 225.47942645 -164.97021484 227.72753906 C-164.9783017 229.00502014 -164.98638855 230.28250122 -164.99472046 231.59869385 C-164.17040223 236.31604656 -162.93380606 237.86133219 -159.38671875 241.078125 C-156.40685661 241.97262102 -156.40685661 241.97262102 -153.12768555 241.85107422 C-151.88677658 241.87064178 -150.64586761 241.89020935 -149.36735535 241.91036987 C-148.02354519 241.90182116 -146.67973905 241.8926202 -145.3359375 241.8828125 C-143.95300487 241.89406863 -142.57009134 241.90795192 -141.18721008 241.92434692 C-137.5587552 241.96033903 -133.93114363 241.96076473 -130.30255127 241.95367432 C-126.59542823 241.95276046 -122.88861966 241.98563321 -119.18164062 242.015625 C-111.91655478 242.06944357 -104.65202757 242.08567456 -97.38671875 242.078125 C-97.37458847 243.18566635 -97.37458847 243.18566635 -97.36221313 244.31558228 C-97.2841263 251.28930654 -97.19679339 258.26286103 -97.09919167 265.23633766 C-97.04934195 268.82109364 -97.00301147 272.40582176 -96.96484375 275.99072266 C-96.92784712 279.45327741 -96.88144932 282.91559249 -96.82865524 286.37794113 C-96.80122742 288.33534638 -96.78342286 290.29287885 -96.76577759 292.25039673 C-96.7459079 293.45118866 -96.72603821 294.65198059 -96.70556641 295.88916016 C-96.6855809 297.46801498 -96.6855809 297.46801498 -96.66519165 299.07876587 C-96.35607827 302.40814562 -95.75845071 305.02459459 -94.38671875 308.078125 C-91.11236857 310.71326945 -87.40788458 310.35037785 -83.3425293 310.38452148 C-82.64117859 310.392845 -81.93982788 310.40116852 -81.21722412 310.40974426 C-78.90257179 310.433805 -76.58820157 310.44261193 -74.2734375 310.44921875 C-72.65924497 310.45818894 -71.04505328 310.46731086 -69.43086243 310.47657776 C-66.04739362 310.49306023 -62.66402366 310.50076635 -59.28051758 310.50366211 C-54.95609302 310.5090415 -50.63260454 310.54670536 -46.30844402 310.59240627 C-42.97372593 310.6222291 -39.63923169 310.62938681 -36.30439186 310.63038826 C-34.71084117 310.63458117 -33.11728925 310.64697818 -31.52387047 310.66790581 C-29.28825555 310.69492786 -27.05478956 310.68996495 -24.8190918 310.67749023 C-22.91524971 310.68509621 -22.91524971 310.68509621 -20.97294617 310.69285583 C-16.46707419 310.18837328 -16.46707419 310.18837328 -10.38671875 305.078125 C-10.38671875 317.618125 -10.38671875 330.158125 -10.38671875 343.078125 C-21.13671875 343.515625 -21.13671875 343.515625 -24.50683594 343.64624023 C-25.39016602 343.68434814 -26.27349609 343.72245605 -27.18359375 343.76171875 C-28.08432617 343.79837646 -28.98505859 343.83503418 -29.91308594 343.87280273 C-32.67020976 344.03463425 -32.67020976 344.03463425 -36.38671875 345.078125 C-36.71671875 355.968125 -37.04671875 366.858125 -37.38671875 378.078125 C-52.69921875 378.390625 -52.69921875 378.390625 -57.52075195 378.46606445 C-58.77202881 378.49917725 -60.02330566 378.53229004 -61.3125 378.56640625 C-63.23703003 378.60568237 -63.23703003 378.60568237 -65.20043945 378.64575195 C-68.27658879 378.87076991 -68.27658879 378.87076991 -70.30395508 380.12207031 C-72.02527516 383.231702 -71.81366742 386.42393574 -71.78515625 389.88671875 C-71.78802643 390.64984879 -71.79089661 391.41297882 -71.79385376 392.19923401 C-71.79589398 393.81227358 -71.79036699 395.42533792 -71.77783203 397.03833008 C-71.76179871 399.50333244 -71.77766951 401.96668977 -71.796875 404.43164062 C-71.79489213 406.00000361 -71.79104754 407.56836558 -71.78515625 409.13671875 C-71.79426529 410.24000771 -71.79426529 410.24000771 -71.80355835 411.36558533 C-71.76243828 414.36916743 -71.52034662 416.77474303 -70.30395508 419.53637695 C-67.39975352 421.87179435 -64.99702266 421.62734453 -61.3125 421.6875 C-60.62866745 421.70403625 -59.9448349 421.72057251 -59.24028015 421.73760986 C-57.05983539 421.7861282 -54.88008805 421.80746691 -52.69921875 421.828125 C-51.21936588 421.85628185 -49.73954555 421.8862089 -48.25976562 421.91796875 C-44.63556892 421.99188487 -41.01150501 422.04143752 -37.38671875 422.078125 C-37.36689941 423.0067334 -37.34708008 423.9353418 -37.32666016 424.89208984 C-37.24863262 428.3326302 -37.16194413 431.77272391 -37.06933594 435.21289062 C-37.03101877 436.70271389 -36.99617067 438.19263054 -36.96484375 439.68261719 C-36.91925146 441.82260548 -36.86125001 443.96194936 -36.80078125 446.1015625 C-36.76936035 447.38981934 -36.73793945 448.67807617 -36.70556641 450.00537109 C-36.70213607 453.18294005 -36.70213607 453.18294005 -34.38671875 455.078125 C-26.13671875 455.408125 -17.88671875 455.738125 -9.38671875 456.078125 C-9.38671875 485.448125 -9.38671875 514.818125 -9.38671875 545.078125 C-14.13320981 544.28704316 -16.23658649 543.90016507 -20.15234375 541.7421875 C-21.03293457 541.26088379 -21.91352539 540.77958008 -22.82080078 540.28369141 C-23.75005371 539.76210449 -24.67930664 539.24051758 -25.63671875 538.703125 C-27.09827393 537.89174072 -27.09827393 537.89174072 -28.58935547 537.06396484 C-44.85457871 527.96934581 -60.27134962 517.97619463 -75.38671875 507.078125 C-76.29574951 506.42432861 -76.29574951 506.42432861 -77.22314453 505.75732422 C-84.62716276 500.40371749 -91.58581294 494.61530912 -98.50341797 488.65795898 C-99.91429644 487.47442326 -101.34678564 486.31656818 -102.78955078 485.17211914 C-109.81971304 479.57275684 -116.20498585 473.5391083 -122.51318359 467.1574707 C-124.14363643 465.5086293 -125.78208255 463.86806399 -127.421875 462.22851562 C-132.94869712 456.68361988 -138.34575211 451.0735423 -143.38671875 445.078125 C-143.93086426 444.44076416 -144.47500977 443.80340332 -145.03564453 443.14672852 C-153.24153625 433.49266792 -160.87779617 423.55970792 -168.01367188 413.09082031 C-169.3097259 411.19098579 -170.6203236 409.3020164 -171.93359375 407.4140625 C-179.08717503 397.02352817 -185.27977375 386.10754978 -191.38671875 375.078125 C-191.81984375 374.3051709 -192.25296875 373.5322168 -192.69921875 372.73583984 C-215.37264397 332.10966739 -229.92314001 285.87902021 -237.84863281 240.17675781 C-238.37271943 237.15874176 -238.92216057 234.1461044 -239.47265625 231.1328125 C-244.54893693 202.52233058 -245.66174383 174.123469 -245.63671875 145.140625 C-245.63645187 144.46821903 -245.636185 143.79581306 -245.63591003 143.10303116 C-245.61017918 102.14005132 -245.61017918 102.14005132 -242.88671875 82.078125 C-242.75652344 81.0571875 -242.62632812 80.03625 -242.4921875 78.984375 C-241.96654137 74.94911176 -241.44530761 71.01262264 -240.38671875 67.078125 C-232.3394537 64.79135967 -224.245974 62.86409769 -216.07421875 61.078125 C-214.39295898 60.706875 -214.39295898 60.706875 -212.67773438 60.328125 C-207.0640736 59.09138046 -201.44603311 57.87837046 -195.82226562 56.68847656 C-156.93495089 48.35473681 -118.52671045 38.38124657 -81.38671875 24.078125 C-79.69815973 23.43289528 -78.00951955 22.78787791 -76.32080078 22.14306641 C-57.29437639 14.85615664 -38.44049369 7.15934531 -19.73803711 -0.9230957 C-18.96210205 -1.25269287 -18.18616699 -1.58229004 -17.38671875 -1.921875 C-16.56502197 -2.31528076 -15.7433252 -2.70868652 -14.89672852 -3.11401367 C-9.62234636 -4.81160443 -4.87678989 -2.03341667 0 0 Z " fill="#2C5586" transform="translate(323.38671875,90.921875)"/>
<path d="M0 0 C0.61537628 0.26261627 1.23075256 0.52523254 1.86477661 0.79580688 C3.17902963 1.35738601 4.49175516 1.92255148 5.80303955 2.49102783 C9.28531091 3.99943926 12.78011041 5.47835582 16.2734375 6.9609375 C16.96988373 7.25729095 17.66632996 7.55364441 18.38388062 7.85897827 C27.94987487 11.92134648 37.63607565 15.666574 47.34375 19.375 C48.45395508 19.79990723 49.56416016 20.22481445 50.70800781 20.66259766 C59.24374041 23.92543134 67.79068337 27.15790654 76.34375 30.375 C77.52646484 30.82053223 78.70917969 31.26606445 79.92773438 31.72509766 C103.16205311 40.46210256 126.29776583 48.18381014 150.34375 54.375 C151.43510254 54.65843262 152.52645508 54.94186523 153.65087891 55.23388672 C171.62072895 59.88624931 189.69768763 63.98093825 207.82858276 67.9471283 C215.29147786 69.5797197 222.74867139 71.2377756 230.20516968 72.89930725 C231.72611785 73.23761768 233.24732486 73.57476531 234.76870728 73.91111755 C235.56690887 74.08772415 236.36511047 74.26433075 237.1875 74.44628906 C237.91179199 74.60623352 238.63608398 74.76617798 239.38232422 74.93096924 C241.92506687 75.50659946 244.44632192 76.15399001 246.96875 76.8125 C254.04232033 78.60374003 261.18033218 79.99516132 268.34375 81.375 C269.84979189 92.46357292 271.33027732 103.55427008 272.46875 114.6875 C272.54399902 115.4000293 272.61924805 116.11255859 272.69677734 116.84667969 C272.9439904 119.3543645 273.14951715 121.86262162 273.34375 124.375 C273.43350098 125.51445068 273.52325195 126.65390137 273.61572266 127.82788086 C274.62602406 142.16086502 274.49652366 156.5274118 274.47412109 170.88745117 C274.46842952 174.5693917 274.47181496 178.25125992 274.4775486 181.93319798 C274.50530678 202.74932521 274.03453833 223.36098655 271.71875 244.0625 C271.63549469 244.81324799 271.55223938 245.56399597 271.46646118 246.3374939 C267.50277179 281.53430447 261.33550124 317.62028647 250.33105469 351.34277344 C249.58551115 353.63249914 248.84984936 355.92435879 248.12207031 358.21972656 C235.99389972 396.40913451 220.71100798 432.7797756 200.34375 467.375 C199.85874023 468.1990332 199.37373047 469.02306641 198.87402344 469.87207031 C189.9136924 484.99998235 180.07988232 499.44901513 169.34375 513.375 C168.92657715 513.91833984 168.5094043 514.46167969 168.07958984 515.02148438 C154.46067888 532.72253648 139.60307766 549.17673061 123.87341309 565.02056885 C122.82915045 566.07287782 121.78637206 567.12666221 120.74523926 568.18206787 C114.69679513 574.30459554 108.55075479 580.04959476 101.78808594 585.39819336 C99.31091819 587.40155205 96.98097453 589.51016659 94.65625 591.6875 C88.61422368 597.1776562 82.0901398 601.97209978 75.50878906 606.78808594 C73.36082769 608.36248252 71.22314374 609.95010889 69.0859375 611.5390625 C51.84175472 624.2724206 33.68604089 635.47505066 14.96679688 645.89746094 C12.23577029 647.43582401 9.53151777 649.01520323 6.828125 650.6015625 C5.04195776 651.63071371 3.25550919 652.65937685 1.46875 653.6875 C0.24744385 654.41779419 0.24744385 654.41779419 -0.99853516 655.1628418 C-4.60358175 657.2071073 -6.94522702 658.35826067 -11.140625 658.45703125 C-15.74976687 657.03843981 -19.79875024 655.0429903 -24.03125 652.75 C-24.93464111 652.26781006 -25.83803223 651.78562012 -26.76879883 651.28881836 C-59.0580516 633.83167659 -89.84123939 613.20778251 -117.78125 589.375 C-118.29461914 588.93728271 -118.80798828 588.49956543 -119.33691406 588.04858398 C-129.52690698 579.25458855 -139.21625515 569.97989345 -148.71264648 560.44897461 C-150.48112219 558.67508997 -152.25495044 556.90668223 -154.02929688 555.13867188 C-159.78476734 549.38681975 -165.41143404 543.60327597 -170.65625 537.375 C-171.501875 536.41078125 -172.3475 535.4465625 -173.21875 534.453125 C-199.10595085 504.41733427 -219.80148735 470.66615044 -237.65625 435.375 C-238.29578613 434.12009766 -238.29578613 434.12009766 -238.94824219 432.83984375 C-255.51025077 400.10984741 -267.24673901 364.7578719 -276.65625 329.375 C-276.83317383 328.71661133 -277.01009766 328.05822266 -277.19238281 327.37988281 C-281.35652324 311.62083486 -283.91832649 295.43129721 -286.65625 279.375 C-286.85250977 278.23224609 -287.04876953 277.08949219 -287.25097656 275.91210938 C-297.87511709 212.55289745 -299.78108397 144.62545077 -287.65625 81.375 C-280.60316666 79.71486242 -273.54047781 78.11938767 -266.453125 76.61328125 C-249.70113035 73.04994922 -233.00591409 69.33969261 -216.37597656 65.2421875 C-215.03842864 64.91269068 -213.70086373 64.58326279 -212.36328125 64.25390625 C-211.71410736 64.093992 -211.06493347 63.93407776 -210.39608765 63.76931763 C-203.83450293 62.16026561 -197.24618741 60.67501913 -190.65625 59.1875 C-182.20953 57.27126563 -173.90217473 55.12720995 -165.6328125 52.55078125 C-162.61324953 51.61937958 -159.57847338 50.89083829 -156.5 50.1796875 C-146.97963857 47.82518154 -137.77718 44.4294235 -128.53125 41.1875 C-127.02709534 40.66219696 -127.02709534 40.66219696 -125.49255371 40.12628174 C-94.97685341 29.45608988 -64.82270398 17.89796196 -34.984375 5.4609375 C-33.76685547 4.95530273 -32.54933594 4.44966797 -31.29492188 3.92871094 C-28.78662833 2.85767094 -26.31508139 1.7629491 -23.84570312 0.61035156 C-22.91210968 0.18382797 -22.91210968 0.18382797 -21.95965576 -0.25131226 C-20.25598938 -1.0330049 -18.56075249 -1.83299621 -16.86621094 -2.63427734 C-10.72082613 -4.53098951 -5.70182222 -2.46387234 0 0 Z M-21.00390625 36.7421875 C-21.83919861 37.09249527 -22.67449097 37.44280304 -23.53509521 37.8037262 C-25.33022512 38.55668749 -27.12445585 39.31179536 -28.9178772 40.06881714 C-33.61130042 42.04812554 -38.31324728 44.0069233 -43.015625 45.96484375 C-43.94401688 46.35154739 -44.87240875 46.73825104 -45.82893372 47.13667297 C-63.85636664 54.62922733 -82.14925423 61.36452124 -100.55859375 67.85546875 C-105.35719929 69.54913323 -110.13818321 71.28350262 -114.91015625 73.05078125 C-127.92221904 77.84446744 -140.71910612 81.87840264 -154.26416016 84.82617188 C-158.20313083 85.72990795 -162.08297393 86.8302021 -165.96875 87.9375 C-176.43440776 90.89735649 -186.90806599 93.68953178 -197.59375 95.75 C-204.50185414 97.08327142 -211.32112046 98.70974702 -218.15625 100.375 C-228.28203703 102.83872077 -238.40878534 105.23505351 -248.7109375 106.85546875 C-249.62101562 107.00628906 -250.53109375 107.15710938 -251.46875 107.3125 C-252.62310547 107.48072266 -252.62310547 107.48072266 -253.80078125 107.65234375 C-255.75991384 108.21365158 -255.75991384 108.21365158 -256.70751953 109.9206543 C-258.0249887 113.32891924 -258.33277997 116.75955785 -258.69140625 120.3671875 C-258.81678017 121.54077316 -258.81678017 121.54077316 -258.94468689 122.73806763 C-259.12047541 124.39693853 -259.29255175 126.05620643 -259.46118164 127.71582031 C-259.71440609 130.20726091 -259.9781564 132.69739276 -260.24414062 135.1875 C-260.74399255 139.91399664 -261.20586294 144.64356823 -261.65625 149.375 C-261.76662598 150.48939453 -261.87700195 151.60378906 -261.99072266 152.75195312 C-263.06055958 165.17362728 -262.89834356 177.66742717 -262.90625 190.125 C-262.90758942 191.37010345 -262.90892883 192.61520691 -262.91030884 193.89804077 C-262.90593912 212.66026509 -262.25918628 231.11656846 -260.07519531 249.74951172 C-259.65288016 253.40416209 -259.28476021 257.06090781 -258.9296875 260.72265625 C-257.68580506 273.24646641 -255.90066824 285.47277284 -253.2109375 297.76416016 C-252.6038559 300.62161199 -252.04785382 303.48608439 -251.5 306.35546875 C-244.19510506 344.54122754 -232.10285481 381.15647452 -215.65625 416.375 C-215.16833984 417.42252441 -214.68042969 418.47004883 -214.17773438 419.54931641 C-196.29858406 457.50319605 -172.42136369 491.09213435 -144.65625 522.375 C-143.98335938 523.14070313 -143.31046875 523.90640625 -142.6171875 524.6953125 C-135.13007294 533.13485152 -127.31994665 541.25851966 -118.7265625 548.58203125 C-116.2735089 550.70646824 -113.90921853 552.91688637 -111.53125 555.125 C-105.71677833 560.42548523 -99.59993372 565.26193817 -93.36328125 570.05322266 C-91.80195542 571.26217832 -90.2593063 572.49515565 -88.71875 573.73046875 C-68.54318554 589.74750596 -46.2249754 603.01030741 -23.6328125 615.29736328 C-21.90589557 616.23889136 -20.18664309 617.19444993 -18.46875 618.15234375 C-17.169375 618.85037109 -17.169375 618.85037109 -15.84375 619.5625 C-15.13605469 619.94792969 -14.42835938 620.33335937 -13.69921875 620.73046875 C-10.14616265 621.85141379 -7.28910159 620.66528615 -3.98754883 619.15087891 C-3.03904053 618.63960449 -2.09053223 618.12833008 -1.11328125 617.6015625 C-0.04803223 617.02937988 1.0172168 616.45719727 2.11474609 615.86767578 C3.80591553 614.94317627 3.80591553 614.94317627 5.53125 614 C6.10933411 613.68609314 6.68741821 613.37218628 7.28302002 613.04876709 C41.09582908 594.68242597 72.0111849 572.38053886 100.34375 546.375 C101.16697754 545.62742432 101.16697754 545.62742432 102.00683594 544.86474609 C114.19705136 533.78363501 125.74295169 522.17927647 136.0234375 509.28125 C137.75557869 507.11169942 139.50755159 504.9720132 141.2890625 502.84375 C156.24060619 484.90098213 168.68407767 465.58639099 180.34375 445.375 C181.15223389 443.97894531 181.15223389 443.97894531 181.97705078 442.5546875 C194.80099494 420.24239106 204.8195839 396.62989426 213.34375 372.375 C213.75898926 371.19502441 214.17422852 370.01504883 214.60205078 368.79931641 C225.98943078 336.16739543 233.65593732 302.82142991 238.06005859 268.53271484 C238.31712385 266.57751457 238.60411512 264.62630659 238.89453125 262.67578125 C242.18318579 240.2577011 242.67371221 217.75241522 242.60449219 195.14208984 C242.593057 191.36857942 242.59990743 187.59534991 242.61137295 183.82184887 C242.65412963 167.2366961 242.2817365 150.86858926 240.34375 134.375 C240.19904847 133.03875027 240.05587665 131.70233362 239.91455078 130.36572266 C239.56004085 127.09466443 239.17772455 123.82869512 238.78125 120.5625 C238.65556641 119.47775391 238.52988281 118.39300781 238.40039062 117.27539062 C238.21573242 115.7372168 238.21573242 115.7372168 238.02734375 114.16796875 C237.86576782 112.81481567 237.86576782 112.81481567 237.70092773 111.43432617 C237.54978756 109.38908232 237.54978756 109.38908232 236.34375 108.375 C234.12053263 107.96620473 231.8893107 107.60106825 229.65625 107.25 C220.0251432 105.64481553 210.5597753 103.38851572 201.06323242 101.13647461 C199.75050667 100.82528049 198.43776249 100.51416411 197.125 100.203125 C196.4733638 100.04864395 195.8217276 99.8941629 195.15034485 99.73500061 C188.60529431 98.18941886 182.03839433 96.74905841 175.46875 95.3125 C164.9867234 93.00765959 154.5684683 90.50655181 144.171875 87.84375 C140.4430039 86.89117274 136.70925823 85.99459921 132.953125 85.15625 C86.14162096 74.50112768 39.18701822 55.25105921 -4.51870728 35.53482056 C-11.1802617 32.55503292 -14.55527849 33.99645159 -21.00390625 36.7421875 Z " fill="#0A386B" transform="translate(323.65625,34.625)"/>
<path d="M0 0 C1.49233304 0.61267216 2.98468411 1.2253004 4.47705078 1.83789062 C5.26162659 2.16184814 6.04620239 2.48580566 6.85455322 2.81958008 C11.05106916 4.54974374 15.25583901 6.25957258 19.4609375 7.96875 C20.31898987 8.31752197 21.17704224 8.66629395 22.06109619 9.02563477 C35.065819 14.30123711 48.15056744 19.34730264 61.31030273 24.22265625 C63.6900194 25.1066303 66.06674195 25.99835525 68.44335938 26.890625 C97.9757513 37.93532406 127.91748031 45.96072622 158.61328125 53.078125 C159.59556702 53.30691345 160.57785278 53.5357019 161.58990479 53.77142334 C170.96199232 55.95338619 180.34128058 58.10347396 189.73828125 60.17578125 C190.44845901 60.33246277 191.15863678 60.48914429 191.89033508 60.65057373 C195.96392644 61.53707231 200.04509794 62.36094234 204.140625 63.14013672 C205.06278809 63.31725693 205.98495117 63.49437714 206.93505859 63.67686462 C208.73207567 64.01935797 210.53056405 64.35423853 212.33056641 64.68067932 C214.43805312 65.08232288 216.52838275 65.57214474 218.61328125 66.078125 C218.94328125 66.738125 219.27328125 67.398125 219.61328125 68.078125 C218.70191406 68.75875 217.79054688 69.439375 216.8515625 70.140625 C206.29342318 78.03668715 195.79915332 86.01470227 185.31884766 94.01367188 C180.04561421 98.03735551 174.76837007 102.05577712 169.49169922 106.07495117 C165.10210883 109.41879821 160.71379703 112.76429623 156.328125 116.11328125 C147.72240194 122.68191616 139.09872755 129.2234439 130.42578125 135.703125 C123.25862358 141.05903443 116.17061927 146.50638933 109.12255859 152.01782227 C103.66368631 156.28003926 98.14676803 160.45699914 92.59643555 164.59912109 C87.59842899 168.33128146 82.62990637 172.10041757 77.67578125 175.890625 C76.96156006 176.43686523 76.24733887 176.98310547 75.51147461 177.54589844 C71.00692025 180.99655507 66.52551748 184.47475277 62.08203125 188.00390625 C60.61328125 189.078125 60.61328125 189.078125 59.61328125 189.078125 C59.59869873 188.37727783 59.58411621 187.67643066 59.5690918 186.9543457 C59.49442638 183.76589491 59.3978265 180.57846987 59.30078125 177.390625 C59.27822266 176.28783203 59.25566406 175.18503906 59.23242188 174.04882812 C59.17924805 172.4487793 59.17924805 172.4487793 59.125 170.81640625 C59.09881592 169.83712158 59.07263184 168.85783691 59.0456543 167.84887695 C58.35206375 163.40417952 56.05263687 159.94425468 52.61328125 157.078125 C49.46365689 156.02825021 47.16540709 155.92218658 43.85668945 155.87280273 C42.67569168 155.85285751 41.49469391 155.83291229 40.27790833 155.81236267 C39.0028392 155.79565018 37.72777008 155.77893768 36.4140625 155.76171875 C34.45607979 155.7305471 34.45607979 155.7305471 32.45854187 155.69874573 C28.99145772 155.64360227 25.52431479 155.59415905 22.05712891 155.54589844 C18.51785056 155.4956269 14.97865736 155.43997037 11.43945312 155.38476562 C4.49746969 155.27727862 -2.44459069 155.17581273 -9.38671875 155.078125 C-9.39258499 154.35007156 -9.39845123 153.62201813 -9.40449524 152.87190247 C-9.46246959 146.00081942 -9.53457351 139.1300132 -9.62243366 132.25925159 C-9.66710539 128.72713834 -9.70636813 125.19513956 -9.7331543 121.6628418 C-9.76420955 117.59915178 -9.81899709 113.53607958 -9.875 109.47265625 C-9.88458488 107.57553642 -9.88458488 107.57553642 -9.8943634 105.64009094 C-9.91415756 104.45924423 -9.93395172 103.27839752 -9.9543457 102.06176758 C-9.96544876 101.02474197 -9.97655182 99.98771637 -9.98799133 98.91926575 C-10.61972354 94.41784437 -12.91411459 90.9719618 -16.38671875 88.078125 C-19.77537757 86.94857206 -22.39273628 86.93041201 -25.96606445 86.90112305 C-26.96175949 86.89126625 -26.96175949 86.89126625 -27.97756958 86.88121033 C-30.1725476 86.86151321 -32.36745731 86.84982284 -34.5625 86.83984375 C-35.31350668 86.83576822 -36.06451336 86.8316927 -36.83827782 86.82749367 C-40.81332498 86.80664824 -44.78833777 86.79233993 -48.76342773 86.78295898 C-52.86250303 86.77189741 -56.96103506 86.73749667 -61.0599184 86.69778728 C-64.21785979 86.67160437 -67.37567201 86.66326571 -70.53371239 86.65967751 C-72.04435076 86.65481586 -73.55498352 86.64321379 -75.06551552 86.62463951 C-77.18384125 86.60021045 -79.30076509 86.60121884 -81.41918945 86.6081543 C-82.62259476 86.60228806 -83.82600006 86.59642181 -85.06587219 86.59037781 C-89.11839573 87.18558958 -91.24434537 88.48360471 -94.38671875 91.078125 C-96.6844011 94.26144196 -96.65690342 97.17944247 -96.70556641 101.04003906 C-96.7254361 102.24098206 -96.74530579 103.44192505 -96.76577759 104.67926025 C-96.7773288 105.97104187 -96.78888 107.26282349 -96.80078125 108.59375 C-96.81949862 109.93325995 -96.83907246 111.27275818 -96.85946655 112.61224365 C-96.91073399 116.13026003 -96.95038827 119.64831462 -96.98760986 123.16650391 C-97.02768349 126.75953582 -97.07876046 130.35240954 -97.12890625 133.9453125 C-97.22560153 140.98946742 -97.31002665 148.0337216 -97.38671875 155.078125 C-101.70138371 155.23921874 -106.01526529 155.33602468 -110.33203125 155.421875 C-111.54544189 155.46795898 -112.75885254 155.51404297 -114.0090332 155.56152344 C-123.48847831 155.70276813 -128.39904332 153.63035452 -135.54541016 147.67504883 C-136.10405762 147.11325928 -136.66270508 146.55146973 -137.23828125 145.97265625 C-141.74084103 141.65251459 -146.63798333 137.98884626 -151.63671875 134.265625 C-153.42476557 132.907036 -155.21121601 131.54634353 -156.99609375 130.18359375 C-157.88748047 129.50474121 -158.77886719 128.82588867 -159.69726562 128.12646484 C-164.09423144 124.77765011 -168.49044237 121.42784473 -172.88671875 118.078125 C-174.63671501 116.74478676 -176.38671502 115.41145343 -178.13671875 114.078125 C-181.63671875 111.41145833 -185.13671875 108.74479167 -188.63671875 106.078125 C-189.50361328 105.4176416 -190.37050781 104.7571582 -191.26367188 104.07666016 C-193.00719137 102.74824889 -194.75068113 101.41979861 -196.49414062 100.09130859 C-201.88607554 95.98283163 -207.27913405 91.87583527 -212.6730957 87.77001953 C-215.31210301 85.75995783 -217.9491093 83.74729396 -220.5859375 81.734375 C-223.57901165 79.45054606 -226.58036761 77.17882951 -229.59375 74.921875 C-230.5209082 74.22263916 -230.5209082 74.22263916 -231.46679688 73.50927734 C-233.06857568 72.30162281 -234.67472354 71.09976907 -236.28125 69.8984375 C-236.97605469 69.29773438 -237.67085938 68.69703125 -238.38671875 68.078125 C-238.38671875 67.418125 -238.38671875 66.758125 -238.38671875 66.078125 C-233.51627245 64.99301765 -228.64565921 63.90866364 -223.77490234 62.82495117 C-222.12446774 62.45763568 -220.47407574 62.09012874 -218.82373047 61.72241211 C-216.42557293 61.18811136 -214.02725319 60.65454361 -211.62890625 60.12109375 C-210.91370819 59.96158737 -210.19851013 59.80208099 -209.4616394 59.63774109 C-204.87134352 58.61762181 -200.27511608 57.62971883 -195.67504883 56.65454102 C-156.83678539 48.34245317 -118.47666495 38.36197336 -81.38671875 24.078125 C-79.69815973 23.43289528 -78.00951955 22.78787791 -76.32080078 22.14306641 C-57.29437639 14.85615664 -38.44049369 7.15934531 -19.73803711 -0.9230957 C-18.96210205 -1.25269287 -18.18616699 -1.58229004 -17.38671875 -1.921875 C-16.56502197 -2.31528076 -15.7433252 -2.70868652 -14.89672852 -3.11401367 C-9.62234636 -4.81160443 -4.87678989 -2.03341667 0 0 Z " fill="#08376A" transform="translate(323.38671875,90.921875)"/>
<path d="M0 0 C0.99854256 -0.00788544 0.99854256 -0.00788544 2.01725769 -0.01593018 C4.20640893 -0.02907823 6.3948264 -0.02041122 8.58398438 -0.01025391 C10.11185851 -0.01227615 11.6397317 -0.01518885 13.16760254 -0.01895142 C16.36524674 -0.02336771 19.56263905 -0.01696632 22.76025391 -0.00292969 C26.85260317 0.01416204 30.94436213 0.00431709 35.03668976 -0.01364708 C38.19033226 -0.02450385 41.34383553 -0.02102995 44.4974823 -0.0132637 C46.00611949 -0.01126692 47.51476945 -0.01370262 49.02339172 -0.02070236 C51.13442315 -0.02834837 53.24450759 -0.01667015 55.35546875 0 C56.55506226 0.00238678 57.75465576 0.00477356 58.99060059 0.00723267 C64.32772694 0.64516737 67.70367951 3.41783517 71.17773438 7.38818359 C72.23720001 10.5665805 72.29837733 12.80663707 72.29125977 16.14477539 C72.29118423 17.32577316 72.2911087 18.50677094 72.29103088 19.72355652 C72.2858696 20.99862564 72.28070831 22.27369476 72.27539062 23.58740234 C72.2732682 25.54538506 72.2732682 25.54538506 72.27110291 27.54292297 C72.26728818 31.01008016 72.25746681 34.47719533 72.24639893 37.94433594 C72.23616235 41.48355542 72.23160047 45.0227817 72.2265625 48.56201172 C72.2158436 55.50408625 72.19877971 62.4461329 72.17773438 69.38818359 C73.26981453 69.37819084 73.26981453 69.37819084 74.38395691 69.36799622 C81.25478837 69.3078136 88.12558029 69.26217286 94.99660778 69.23274708 C98.52885903 69.21711017 102.06089196 69.19590859 105.59301758 69.16186523 C109.65643374 69.12294757 113.71962158 69.10845812 117.78320312 69.09521484 C119.04794968 69.07973099 120.31269623 69.06424713 121.61576843 69.04829407 C122.79661514 69.04806747 123.97746185 69.04784088 125.1940918 69.04760742 C126.2311174 69.04094559 127.26814301 69.03428375 128.33659363 69.02742004 C132.61389321 69.57054477 135.10183534 71.56385133 138.45689392 74.13442993 C140.86555296 77.28900717 140.6919314 79.50458655 140.71118164 83.44824219 C140.71979721 84.15119919 140.72841278 84.85415619 140.73728943 85.57841492 C140.75995936 87.8981935 140.75320828 90.2167647 140.74414062 92.53662109 C140.74937673 94.15321206 140.75565316 95.76979996 140.76292419 97.38638306 C140.77333093 100.77417374 140.76876472 104.1615445 140.75415039 107.54931641 C140.73698306 111.88289975 140.76042957 116.21515466 140.79563999 120.54858971 C140.81764482 123.88761113 140.81616482 127.2263164 140.80787468 130.56538773 C140.80705642 132.16252726 140.81389582 133.7596903 140.82864571 135.35676193 C140.84614548 137.59510582 140.83150772 139.83108541 140.80883789 142.06933594 C140.80787613 143.34078461 140.80691437 144.61223328 140.80592346 145.92221069 C139.97767288 150.49200368 138.42227526 152.11915265 135.17773438 155.38818359 C132.47484129 156.73963013 130.37703631 156.50793524 127.35107422 156.50170898 C126.12995941 156.50163345 124.9088446 156.50155792 123.65072632 156.5014801 C122.31337443 156.49637311 120.97602295 156.49115711 119.63867188 156.48583984 C118.27389579 156.48397499 116.90911903 156.48255141 115.54434204 156.48155212 C111.95058344 156.47773222 108.3568652 156.46790643 104.76312256 156.45684814 C101.09664455 156.44662271 97.43016003 156.44205207 93.76367188 156.43701172 C86.56834097 156.42628369 79.37304332 156.40921358 72.17773438 156.38818359 C72.18661682 157.12654449 72.19549927 157.8649054 72.20465088 158.62564087 C72.28494696 165.59913448 72.34577495 172.5725586 72.38498306 179.54639626 C72.4058186 183.1313926 72.43406088 186.71600554 72.47949219 190.30078125 C72.5230963 193.7632255 72.5469018 197.225302 72.55724335 200.68799973 C72.56818258 202.64560842 72.59938566 204.60307007 72.63092041 206.56045532 C72.6337287 217.72200086 72.6337287 217.72200086 68.17773438 222.38818359 C64.65210322 225.7529175 61.89052377 225.77643138 57.10180664 225.80810547 C56.39724335 225.81657501 55.69268005 225.82504456 54.96676636 225.83377075 C52.64237315 225.85713149 50.31864224 225.85816321 47.99414062 225.85693359 C46.37515499 225.86403571 44.75617187 225.87173478 43.13719177 225.88000488 C39.74527997 225.89344748 36.3536009 225.8950195 32.96166992 225.88916016 C28.61906753 225.88326375 24.27758304 225.91385292 19.93519688 225.95427704 C16.59195459 225.98015099 13.24898161 225.98303179 9.905653 225.97938538 C8.30488207 225.98107689 6.70409875 225.9907226 5.10342598 226.00852966 C2.86254602 226.03071599 0.62393014 226.02102289 -1.61694336 226.00341797 C-2.89061264 226.00547241 -4.16428192 226.00752686 -5.47654724 226.00964355 C-9.73560034 225.21853364 -11.14456515 223.72695306 -13.82226562 220.38818359 C-16.03347906 217.08427947 -16.06584175 214.35930122 -16.04931641 210.42626953 C-16.04916534 209.22532654 -16.04901428 208.02438354 -16.04885864 206.78704834 C-16.03337479 204.84937592 -16.03337479 204.84937592 -16.01757812 202.87255859 C-16.01384596 201.53306286 -16.01099995 200.19356439 -16.00900269 198.85406494 C-16.00138219 195.33590094 -15.98174749 191.8179032 -15.95959473 188.29980469 C-15.93910205 184.70689137 -15.92999367 181.11395107 -15.91992188 177.52099609 C-15.89849997 170.47665742 -15.86438327 163.43243139 -15.82226562 156.38818359 C-16.58568268 156.40372787 -17.34909973 156.41927216 -18.13565063 156.43528748 C-25.34457868 156.57578554 -32.55283935 156.68223858 -39.76278114 156.7508688 C-43.46924047 156.78734006 -47.17456494 156.83677071 -50.88037109 156.91625977 C-54.45959927 156.99254967 -58.03773905 157.03421981 -61.61771774 157.0523243 C-62.98056547 157.06521832 -64.34335625 157.09039996 -65.70573807 157.12829399 C-77.68240059 157.44804612 -77.68240059 157.44804612 -81.66113281 153.87524414 C-85.59965568 147.88669866 -84.6362056 139.79626818 -84.54882812 132.91162109 C-84.54778964 131.29692588 -84.54883001 129.68222812 -84.55184937 128.0675354 C-84.55167048 124.6932369 -84.53092627 121.3198997 -84.49462891 117.94580078 C-84.44918034 113.6268622 -84.44818435 109.30932172 -84.4616642 104.99020958 C-84.46835423 101.65977609 -84.45506577 98.3296599 -84.43540573 94.99928665 C-84.42772475 93.40693447 -84.42539576 91.81454694 -84.42857742 90.22217941 C-84.42932141 87.99607061 -84.40401588 85.77173933 -84.37158203 83.54589844 C-84.36236725 82.28127777 -84.35315247 81.0166571 -84.34365845 79.7137146 C-83.72596282 75.77394811 -82.64489233 74.16236887 -79.82226562 71.38818359 C-76.56535259 69.13585336 -73.76279603 69.14473599 -69.86035156 69.16113281 C-68.05893707 69.16135941 -68.05893707 69.16135941 -66.22113037 69.16159058 C-64.28345795 69.17707443 -64.28345795 69.17707443 -62.30664062 69.19287109 C-60.96714489 69.19660326 -59.62764642 69.19944927 -58.28814697 69.20144653 C-54.76998297 69.20906703 -51.25198523 69.22870173 -47.73388672 69.25085449 C-44.1409734 69.27134716 -40.5480331 69.28045555 -36.95507812 69.29052734 C-29.91073945 69.31194925 -22.86651342 69.34606595 -15.82226562 69.38818359 C-15.83114807 68.64982269 -15.84003052 67.91146179 -15.84918213 67.15072632 C-15.92947821 60.1772327 -15.9903062 53.20380859 -16.02951431 46.22997093 C-16.05034985 42.64497459 -16.07859213 39.06036165 -16.12402344 35.47558594 C-16.16762755 32.01314169 -16.19143305 28.55106518 -16.2017746 25.08836746 C-16.21271383 23.13075877 -16.24391691 21.17329711 -16.27545166 19.21591187 C-16.27829201 7.9269403 -16.27829201 7.9269403 -11.82226562 3.38818359 C-7.80494066 0.44960833 -4.93836817 0.00982566 0 0 Z " fill="#FEFEFE" transform="translate(241.822265625,176.61181640625)"/>
<path d="M0 0 C0.88059082 0.37568115 1.76118164 0.7513623 2.66845703 1.13842773 C3.63251465 1.55294189 4.59657227 1.96745605 5.58984375 2.39453125 C50.53233988 21.397886 96.98238183 39.91603286 144.52734375 51.20703125 C146.07971683 51.58866706 147.63180587 51.97146033 149.18359375 52.35546875 C163.03183937 55.74705107 176.96288351 58.80056369 190.87670898 61.90942383 C192.53632086 62.28064867 194.19590772 62.6519854 195.85546875 63.0234375 C196.66722061 63.2049939 197.47897247 63.38655029 198.31532288 63.5736084 C203.77659371 64.80004035 209.22371112 66.0793078 214.66796875 67.37890625 C220.42721487 68.74940528 226.17938457 69.96907752 232.02734375 70.89453125 C239.3999628 72.0796503 239.3999628 72.0796503 240.52734375 73.20703125 C240.8880306 75.3897171 241.18872317 77.58235629 241.46484375 79.77734375 C241.54984131 80.45062714 241.63483887 81.12391052 241.72241211 81.81759644 C241.90267545 83.25492344 242.08074722 84.69252668 242.25683594 86.13037109 C242.52036877 88.27526194 242.7927943 90.41887477 243.06640625 92.5625 C243.24143606 93.96737942 243.41592938 95.37232581 243.58984375 96.77734375 C243.74582031 98.03305176 243.90179687 99.28875977 244.0625 100.58251953 C245.33033779 112.32796661 245.6890072 124.04653201 245.6953125 135.8515625 C245.69854427 137.31483489 245.70190958 138.77810699 245.70539856 140.24137878 C245.71133176 143.29105372 245.71324478 146.34070058 245.71264648 149.39038086 C245.7125657 152.45684773 245.71944139 155.52316369 245.7331543 158.58959961 C245.81664566 177.56150178 245.40809827 196.30633923 243.52734375 215.20703125 C243.45810699 215.9266806 243.38887024 216.64632996 243.3175354 217.38778687 C242.96045371 221.06390831 242.54913482 224.72986523 242.08984375 228.39453125 C241.96206543 229.4323877 241.83428711 230.47024414 241.70263672 231.53955078 C240.86490572 238.11702397 239.80848441 244.56650396 238.3984375 251.046875 C237.66426528 254.44274579 237.04306327 257.85234403 236.4375 261.2734375 C229.81728854 298.67234802 218.7263814 334.40112882 203.52734375 369.20703125 C203.05329102 370.29661133 202.57923828 371.38619141 202.09082031 372.50878906 C186.35220277 408.37012802 165.65298137 441.20953797 140.52734375 471.20703125 C140.03411621 471.79935547 139.54088867 472.39167969 139.03271484 473.00195312 C126.48686499 488.03183936 113.09976069 502.12922117 98.52734375 515.20703125 C97.91922852 515.75456055 97.31111328 516.30208984 96.68457031 516.86621094 C87.02942881 525.51528772 76.93122312 533.48146969 66.52734375 541.20703125 C65.79612305 541.75391602 65.06490234 542.30080078 64.31152344 542.86425781 C47.68784625 555.26466178 30.05736847 565.68332913 11.98681641 575.82324219 C10.39463149 576.71906352 8.80553678 577.62040896 7.22021484 578.52832031 C5.16346065 579.70610792 3.09745192 580.86542318 1.02734375 582.01953125 C-0.11734375 582.66535156 -1.26203125 583.31117188 -2.44140625 583.9765625 C-5.91037075 585.38471175 -6.94919863 585.17589954 -10.47265625 584.20703125 C-12.06929998 583.52191308 -13.63978426 582.77362609 -15.18359375 581.9765625 C-16.087146 581.51048584 -16.99069824 581.04440918 -17.92163086 580.56420898 C-18.88721924 580.05446533 -19.85280762 579.54472168 -20.84765625 579.01953125 C-21.85771729 578.48851807 -22.86777832 577.95750488 -23.90844727 577.41040039 C-50.83096167 563.07075943 -76.14577618 545.85595154 -99.47265625 526.20703125 C-99.98441406 525.78019043 -100.49617187 525.35334961 -101.0234375 524.91357422 C-117.10535684 511.48478775 -132.8919472 497.18920715 -146.47265625 481.20703125 C-147.67148438 479.82451172 -147.67148438 479.82451172 -148.89453125 478.4140625 C-156.46957251 469.63399624 -163.55666862 460.51271512 -170.47265625 451.20703125 C-170.96878418 450.54251953 -171.46491211 449.87800781 -171.97607422 449.19335938 C-212.18223906 394.97615881 -237.66085245 329.18106797 -249.92285156 263.14355469 C-250.43799044 260.39218241 -250.979966 257.64744828 -251.52734375 254.90234375 C-253.93791273 242.41079378 -255.3702534 229.85405245 -256.66015625 217.20703125 C-256.74492218 216.37677429 -256.82968811 215.54651733 -256.91702271 214.69110107 C-257.47183551 209.19949371 -257.98747209 203.7052094 -258.47265625 198.20703125 C-258.57940674 197.01883789 -258.68615723 195.83064453 -258.79614258 194.60644531 C-259.7784845 182.08003289 -259.7575472 169.51503957 -259.78515625 156.95703125 C-259.78843933 155.73424469 -259.79172241 154.51145813 -259.79510498 153.25161743 C-259.80966246 136.38292984 -259.25515149 119.68425767 -257.59765625 102.89453125 C-257.51061432 102.01091919 -257.42357239 101.12730713 -257.33389282 100.21691895 C-256.41647875 91.1433021 -255.3264018 82.14517852 -253.47265625 73.20703125 C-244.99839931 70.70327352 -236.46437761 68.56172631 -227.78515625 66.89453125 C-219.67957727 65.31682329 -211.67942746 63.35408574 -203.65771484 61.39916992 C-198.09076765 60.0503815 -192.53794776 58.77294892 -186.91015625 57.70703125 C-159.21610249 52.38125168 -132.04399707 43.97818773 -105.47265625 34.64453125 C-104.59116913 34.33512604 -103.70968201 34.02572083 -102.80148315 33.7069397 C-75.00211432 23.93588527 -47.72068725 13.13779262 -20.5499115 1.74468994 C-19.13239369 1.15059583 -17.71336495 0.56008705 -16.29248047 -0.02590942 C-14.7638794 -0.67021764 -13.25761487 -1.36716321 -11.7578125 -2.07592773 C-7.50448187 -3.41054654 -3.93310475 -1.70190947 0 0 Z M-17.47265625 19.51953125 C-19.20384162 20.26048397 -20.93564872 20.99998521 -22.66796875 21.73828125 C-23.60415039 22.13789062 -24.54033203 22.5375 -25.50488281 22.94921875 C-44.96694779 31.1977017 -64.65244085 38.86571726 -84.47265625 46.20703125 C-85.66600586 46.64966309 -86.85935547 47.09229492 -88.08886719 47.54833984 C-91.65023041 48.86268702 -95.21650015 50.16262888 -98.78515625 51.45703125 C-99.80730225 51.83287354 -100.82944824 52.20871582 -101.88256836 52.59594727 C-121.21882537 59.53235038 -141.19244946 64.55248399 -161.11035156 69.49682617 C-164.73552736 70.39772989 -168.3580573 71.30875543 -171.98046875 72.22070312 C-184.73479191 75.41294406 -197.48940599 78.34595877 -210.40454102 80.80709839 C-215.31861112 81.75738302 -220.20744924 82.82950717 -225.09765625 83.89453125 C-226.58265625 84.21260742 -226.58265625 84.21260742 -228.09765625 84.53710938 C-229.03867188 84.74142578 -229.9796875 84.94574219 -230.94921875 85.15625 C-231.77502441 85.33502686 -232.60083008 85.51380371 -233.45166016 85.69799805 C-235.52336554 86.14271483 -235.52336554 86.14271483 -237.47265625 87.20703125 C-244.65435926 111.54502479 -242.71770445 140.28725989 -242.72265625 165.26953125 C-242.72295082 165.95361431 -242.72324539 166.63769737 -242.72354889 167.34251022 C-242.72505663 189.08437193 -242.423554 210.63344803 -239.47265625 232.20703125 C-239.37084045 232.95285461 -239.26902466 233.69867798 -239.16412354 234.46710205 C-236.37231223 254.63959958 -232.74015656 274.5223463 -227.47265625 294.20703125 C-227.21403809 295.19960938 -226.95541992 296.1921875 -226.68896484 297.21484375 C-220.03854614 322.66133881 -211.46398048 347.3126588 -200.47265625 371.20703125 C-200.08142578 372.0769873 -199.69019531 372.94694336 -199.28710938 373.84326172 C-190.22316613 393.99583104 -179.1241652 413.09656217 -166.47265625 431.20703125 C-166.08190918 431.77502441 -165.69116211 432.34301758 -165.28857422 432.92822266 C-156.60458058 445.54432294 -147.04948951 457.53662108 -136.66796875 468.80078125 C-134.84806984 470.79554589 -133.0844244 472.82035931 -131.32421875 474.8671875 C-126.99238219 479.82759677 -122.38022356 484.49136701 -117.72265625 489.14453125 C-116.38823486 490.47774414 -116.38823486 490.47774414 -115.02685547 491.83789062 C-109.90475738 496.91224113 -104.78325268 501.73868868 -99.08203125 506.15625 C-96.50398493 508.18240916 -94.05725773 510.30841222 -91.60083008 512.47802734 C-83.3419343 519.73978308 -74.55870036 526.02859693 -65.47265625 532.20703125 C-64.65877441 532.76680664 -63.84489258 533.32658203 -63.00634766 533.90332031 C-50.96182837 542.17945077 -38.68322766 549.8176581 -25.88378906 556.87158203 C-23.57601231 558.14978564 -21.28510001 559.45418316 -18.99609375 560.765625 C-17.65558534 561.51806382 -16.31448032 562.26944117 -14.97265625 563.01953125 C-13.82796875 563.66535156 -12.68328125 564.31117188 -11.50390625 564.9765625 C-8.0092894 566.39512475 -7.02161539 566.22009186 -3.47265625 565.20703125 C-1.53112663 564.2873866 0.37603002 563.29348665 2.25390625 562.25 C3.91087524 561.33238892 3.91087524 561.33238892 5.60131836 560.39624023 C6.78540183 559.72972881 7.96906794 559.06247547 9.15234375 558.39453125 C9.75515167 558.05656525 10.35795959 557.71859924 10.97903442 557.37039185 C52.86266346 533.87320933 93.38943364 504.12865684 124.52734375 467.20703125 C125.29949219 466.32402344 126.07164062 465.44101562 126.8671875 464.53125 C149.22953473 438.81686388 167.87430209 409.84203761 182.60058594 379.12988281 C183.53212276 377.19711568 184.48538683 375.27622509 185.44140625 373.35546875 C204.1515515 335.27950358 215.52926432 293.89955379 222.52734375 252.20703125 C222.70894043 251.16385742 222.89053711 250.12068359 223.07763672 249.04589844 C231.34402197 201.12330667 232.11404048 151.46604747 226.52734375 103.20703125 C226.3798262 101.7994851 226.23236648 100.39193289 226.08496094 98.984375 C225.92883732 97.61055129 225.77164427 96.23684862 225.61328125 94.86328125 C225.40904541 93.01959961 225.40904541 93.01959961 225.20068359 91.13867188 C224.80995648 87.89944281 224.80995648 87.89944281 221.52734375 86.20703125 C219.75028601 85.75387706 217.95271954 85.37918536 216.1484375 85.05078125 C215.02195801 84.8384082 213.89547852 84.62603516 212.73486328 84.40722656 C211.49075684 84.17616211 210.24665039 83.94509766 208.96484375 83.70703125 C191.70454071 80.39898075 174.64138858 76.32918903 157.57240295 72.15737915 C152.39463161 70.89391736 147.21085723 69.66357669 142.01702881 68.46789551 C115.15504224 62.26871821 89.38538918 53.72857203 63.52734375 44.20703125 C62.84303284 43.95588562 62.15872192 43.70473999 61.45367432 43.44598389 C53.4251843 40.49597332 45.46239856 37.39904252 37.52734375 34.20703125 C36.80703979 33.917677 36.08673584 33.62832275 35.34460449 33.3302002 C26.35178804 29.71682853 17.36642589 26.08512869 8.390625 22.4296875 C7.70008026 22.14884308 7.00953552 21.86799866 6.29806519 21.5786438 C5.64065338 21.31042816 4.98324158 21.04221252 4.3059082 20.76586914 C3.67665436 20.50943634 3.04740051 20.25300354 2.39907837 19.98880005 C0.49216972 19.19234009 -1.39024039 18.3493613 -3.27661133 17.50561523 C-8.85857602 15.23760895 -12.26754778 17.24816215 -17.47265625 19.51953125 Z " fill="#FBFCFD" transform="translate(320.47265625,70.79296875)"/>
<path d="M0 0 C0.83208984 -0.00524185 1.66417969 -0.0104837 2.52148438 -0.0158844 C4.27993657 -0.02230504 6.03843171 -0.02096702 7.796875 -0.01245117 C10.49035897 -0.00393673 13.18172541 -0.03270674 15.875 -0.06445312 C17.5833327 -0.0660651 19.29166916 -0.06548768 21 -0.0625 C21.80630859 -0.07373398 22.61261719 -0.08496796 23.44335938 -0.09654236 C28.91779075 -0.02814868 28.91779075 -0.02814868 31.51293945 2.0300293 C32.84265185 5.26797601 32.83745163 7.8873988 32.79296875 11.38671875 C32.78872391 12.04694031 32.78447906 12.70716187 32.78010559 13.38739014 C32.76337435 15.48654766 32.72573551 17.58472871 32.6875 19.68359375 C32.67244584 21.11066317 32.65875871 22.53774771 32.64648438 23.96484375 C32.61349001 27.45474192 32.56174743 30.94407245 32.5 34.43359375 C33.42337158 34.4178833 34.34674316 34.40217285 35.2980957 34.38598633 C38.72539889 34.33484543 42.15229642 34.2972384 45.57983398 34.26879883 C47.06297199 34.25371607 48.54606544 34.23324686 50.02905273 34.20727539 C52.16140745 34.17086759 54.29317235 34.15386302 56.42578125 34.140625 C58.35031128 34.11705933 58.35031128 34.11705933 60.3137207 34.09301758 C63.5 34.43359375 63.5 34.43359375 65.41943359 35.43432617 C67.18179361 38.69505056 66.90570482 42.10144128 66.86328125 45.71484375 C66.86402901 46.92968445 66.86402901 46.92968445 66.86479187 48.16906738 C66.86245258 49.88047745 66.85273255 51.59189103 66.83618164 53.30322266 C66.81258804 55.92381533 66.81562167 58.5433906 66.82226562 61.1640625 C66.81668876 62.82682899 66.80957883 64.48959119 66.80078125 66.15234375 C66.80169266 66.93677856 66.80260406 67.72121338 66.80354309 68.52941895 C66.75368827 72.35199021 66.67016688 74.17834342 64.5 77.43359375 C61.08248347 78.57276593 58.46512063 78.54697856 54.86328125 78.53125 C52.91518555 78.52641602 52.91518555 78.52641602 50.92773438 78.52148438 C49.55598892 78.51312906 48.18424413 78.50466412 46.8125 78.49609375 C45.42903805 78.4910771 44.04557437 78.48651448 42.66210938 78.48242188 C39.27469605 78.47061904 35.88736967 78.45415394 32.5 78.43359375 C32.5314209 79.76535645 32.5314209 79.76535645 32.56347656 81.12402344 C32.63175677 84.4265383 32.6818487 87.72830045 32.71972656 91.03125 C32.73980982 92.45910496 32.76708252 93.886878 32.80175781 95.31445312 C32.85042669 97.36999743 32.87299967 99.4244523 32.890625 101.48046875 C32.9220459 103.33430176 32.9220459 103.33430176 32.95410156 105.22558594 C32.5 108.43359375 32.5 108.43359375 30.99926758 110.8371582 C27.46321323 113.09585308 24.18423266 112.98826156 20.12109375 112.9296875 C19.3126149 112.93114273 18.50413605 112.93259796 17.67115784 112.93409729 C15.96571236 112.93244035 14.26025162 112.92090186 12.55493164 112.90014648 C9.94287773 112.87115344 7.33284923 112.87954813 4.72070312 112.89257812 C3.06249013 112.88634157 1.40428354 112.87795127 -0.25390625 112.8671875 C-1.03520401 112.87012314 -1.81650177 112.87305878 -2.62147522 112.87608337 C-5.53070176 112.82536926 -7.90844786 112.75497 -10.49707031 111.34863281 C-12.06542535 108.35394515 -11.83407553 105.7164288 -11.79296875 102.359375 C-11.78872391 101.67554245 -11.78447906 100.9917099 -11.78010559 100.28715515 C-11.76333353 98.10639814 -11.72568657 95.92657066 -11.6875 93.74609375 C-11.67245114 92.2662894 -11.65876308 90.78647055 -11.64648438 89.30664062 C-11.61343569 85.68199039 -11.56166446 82.05788281 -11.5 78.43359375 C-12.41813477 78.45977783 -13.33626953 78.48596191 -14.28222656 78.51293945 C-17.6966118 78.59827748 -21.10986061 78.66089449 -24.52490234 78.70825195 C-26.00132146 78.73336112 -27.47761668 78.7674563 -28.95361328 78.81079102 C-31.0787614 78.87161175 -33.20226394 78.89983584 -35.328125 78.921875 C-36.6059082 78.94805908 -37.88369141 78.97424316 -39.20019531 79.0012207 C-42.5 78.43359375 -42.5 78.43359375 -44.91503906 76.40332031 C-46.89537734 72.6927789 -47.07697262 69.53627831 -47.03125 65.4296875 C-47.03699036 64.28923729 -47.03699036 64.28923729 -47.04284668 63.12574768 C-47.04555926 61.52465484 -47.03824379 59.92351719 -47.02148438 58.32250977 C-47.00003256 55.87480897 -47.02132018 53.43003286 -47.046875 50.98242188 C-47.04423218 49.42317062 -47.03910815 47.86392119 -47.03125 46.3046875 C-47.03934692 45.57543564 -47.04744385 44.84618378 -47.05578613 44.09483337 C-46.9956251 40.82982421 -46.69346256 38.73478385 -44.91503906 35.96606445 C-41.59166824 33.85720895 -39.24732069 33.97871964 -35.328125 34.04296875 C-34.3044986 34.05145844 -34.3044986 34.05145844 -33.26019287 34.06011963 C-31.08940238 34.08243739 -28.92028794 34.13261867 -26.75 34.18359375 C-25.2747635 34.20366499 -23.79950101 34.22191468 -22.32421875 34.23828125 C-18.71560499 34.28228495 -15.10796619 34.35127792 -11.5 34.43359375 C-11.51571045 33.51022217 -11.5314209 32.58685059 -11.54760742 31.63549805 C-11.59874832 28.20819486 -11.63635535 24.78129733 -11.66479492 21.35375977 C-11.67987768 19.87062176 -11.70034689 18.38752831 -11.72631836 16.90454102 C-11.76272616 14.7721863 -11.77973073 12.6404214 -11.79296875 10.5078125 C-11.8086792 9.22479248 -11.82438965 7.94177246 -11.84057617 6.61987305 C-11.5 3.43359375 -11.5 3.43359375 -10.21504211 1.75970459 C-7.25007236 -0.53287965 -3.60083638 -0.01311006 0 0 Z " fill="#BBC7D5" transform="translate(297.5,434.56640625)"/>
<path d="M0 0 C2.03072002 -0.00437289 4.05926415 -0.0406999 6.08959961 -0.07861328 C7.37157227 -0.08248047 8.65354492 -0.08634766 9.97436523 -0.09033203 C11.14926514 -0.0985498 12.32416504 -0.10676758 13.53466797 -0.11523438 C16.60327148 0.37060547 16.60327148 0.37060547 18.99316406 2.046875 C20.99386647 4.93431784 21.06814966 6.52133105 20.99389648 10.01123047 C20.98100586 11.08115234 20.96811523 12.15107422 20.95483398 13.25341797 C20.92131836 14.36458984 20.88780273 15.47576172 20.85327148 16.62060547 C20.83522461 17.74724609 20.81717773 18.87388672 20.79858398 20.03466797 C20.75147371 22.81417443 20.68570509 25.59195886 20.60327148 28.37060547 C21.31459229 28.36013184 22.02591309 28.3496582 22.75878906 28.33886719 C25.97774735 28.29732546 29.19664924 28.27128508 32.41577148 28.24560547 C33.53532227 28.22884766 34.65487305 28.21208984 35.80834961 28.19482422 C36.88149414 28.18837891 37.95463867 28.18193359 39.06030273 28.17529297 C40.54494019 28.15958252 40.54494019 28.15958252 42.05957031 28.14355469 C44.60327148 28.37060547 44.60327148 28.37060547 47.60327148 30.37060547 C47.97558594 33.50341797 47.97558594 33.50341797 47.96655273 37.49560547 C47.96730049 38.54965576 47.96730049 38.54965576 47.96806335 39.625 C47.9657221 41.11119412 47.95599037 42.59739214 47.93945312 44.08349609 C47.91586214 46.36185052 47.91889082 48.639035 47.92553711 50.91748047 C47.88234405 62.0915329 47.88234405 62.0915329 45.60327148 64.37060547 C42.98950195 64.59765625 42.98950195 64.59765625 39.72045898 64.56591797 C38.55385742 64.55947266 37.38725586 64.55302734 36.18530273 64.54638672 C34.96198242 64.52962891 33.73866211 64.51287109 32.47827148 64.49560547 C31.2472168 64.48658203 30.01616211 64.47755859 28.74780273 64.46826172 C25.69943334 64.44463095 22.65144766 64.41168601 19.60327148 64.37060547 C19.61898193 65.5363208 19.61898193 65.5363208 19.63500977 66.72558594 C19.67647431 70.23222647 19.70256726 73.73881552 19.72827148 77.24560547 C19.7450293 78.46892578 19.76178711 79.69224609 19.77905273 80.95263672 C19.7887207 82.70253906 19.7887207 82.70253906 19.79858398 84.48779297 C19.81429443 86.10596924 19.81429443 86.10596924 19.83032227 87.75683594 C19.60327148 90.37060547 19.60327148 90.37060547 17.60327148 92.37060547 C14.56225586 92.62939453 14.56225586 92.62939453 10.69702148 92.63623047 C9.67626526 92.63910065 9.67626526 92.63910065 8.6348877 92.64202881 C7.19579702 92.6433901 5.75669405 92.63969752 4.31762695 92.63134766 C2.11178061 92.62064675 -0.09325133 92.63124419 -2.29907227 92.64404297 C-3.69620948 92.64272136 -5.0933462 92.64015895 -6.49047852 92.63623047 C-7.76600586 92.63397461 -9.0415332 92.63171875 -10.35571289 92.62939453 C-13.39672852 92.37060547 -13.39672852 92.37060547 -15.39672852 90.37060547 C-15.6237793 87.75683594 -15.6237793 87.75683594 -15.59204102 84.48779297 C-15.5855957 83.32119141 -15.57915039 82.15458984 -15.57250977 80.95263672 C-15.55575195 79.72931641 -15.53899414 78.50599609 -15.52172852 77.24560547 C-15.51270508 76.01455078 -15.50368164 74.78349609 -15.49438477 73.51513672 C-15.470754 70.46676732 -15.43780906 67.41878165 -15.39672852 64.37060547 C-16.17387207 64.3810791 -16.95101563 64.39155273 -17.75170898 64.40234375 C-21.25834952 64.44380829 -24.76493857 64.46990125 -28.27172852 64.49560547 C-29.49504883 64.51236328 -30.71836914 64.52912109 -31.97875977 64.54638672 C-33.72866211 64.55605469 -33.72866211 64.55605469 -35.51391602 64.56591797 C-36.5927002 64.5763916 -37.67148437 64.58686523 -38.78295898 64.59765625 C-41.39672852 64.37060547 -41.39672852 64.37060547 -43.39672852 62.37060547 C-43.79659973 57.80958549 -43.72575243 53.23432308 -43.71240234 48.65771484 C-43.70924049 46.37923457 -43.73270369 44.10205026 -43.75805664 41.82373047 C-43.76032939 40.38102378 -43.76103324 38.93831359 -43.76000977 37.49560547 C-43.76299072 36.17818359 -43.76597168 34.86076172 -43.76904297 33.50341797 C-43.6461792 32.46958984 -43.52331543 31.43576172 -43.39672852 30.37060547 C-39.95038969 28.07304625 -38.6860446 28.13416571 -34.63500977 28.17529297 C-32.95761719 28.18496094 -32.95761719 28.18496094 -31.24633789 28.19482422 C-29.49546875 28.21996094 -29.49546875 28.21996094 -27.70922852 28.24560547 C-25.94095703 28.25914062 -25.94095703 28.25914062 -24.13696289 28.27294922 C-21.22334825 28.29654124 -18.3101396 28.32946007 -15.39672852 28.37060547 C-15.41243896 27.59346191 -15.42814941 26.81631836 -15.44433594 26.015625 C-15.50653203 22.50902527 -15.54567058 19.00254133 -15.58422852 15.49560547 C-15.60936523 14.27228516 -15.63450195 13.04896484 -15.66040039 11.78857422 C-15.67006836 10.62197266 -15.67973633 9.45537109 -15.68969727 8.25341797 C-15.70540771 7.17463379 -15.72111816 6.09584961 -15.73730469 4.984375 C-15.62491455 4.12183105 -15.51252441 3.25928711 -15.39672852 2.37060547 C-10.65936145 -0.78763924 -5.5749431 -0.00134774 0 0 Z " fill="#BBC7D5" transform="translate(422.396728515625,344.62939453125)"/>
</svg>
